<?xml version="1.0" encoding="utf-8"?>
<!-- Svg Vector Icons : http://www.onlinewebfonts.com/icon -->
<!DOCTYPE svg PUBLIC "-//W3C//DTD SVG 1.1//EN" "http://www.w3.org/Graphics/SVG/1.1/DTD/svg11.dtd">
<svg version="1.1" xmlns="http://www.w3.org/2000/svg" xmlns:xlink="http://www.w3.org/1999/xlink" x="0px" y="0px" viewBox="0 0 1000 1000" enable-background="new 0 0 1000 1000" xml:space="preserve">
<metadata> Svg Vector Icons : http://www.onlinewebfonts.com/icon </metadata>
<g><path d="M500,10C229.4,10,10,229.4,10,500s219.4,490,490,490s490-219.4,490-490S770.6,10,500,10z M500,928.8c-236.8,0-428.8-192-428.8-428.8c0-236.8,192-428.8,428.8-428.8c236.8,0,428.8,192,428.8,428.8C928.8,736.8,736.8,928.8,500,928.8z"/><path d="M683.8,683.8v-31.2c0-63.7-32.6-119.9-82.1-152.9c49.4-33,82.1-89.1,82.1-152.8v-30.6c16.8,0,30.6-13.8,30.6-30.6S700.6,255,683.8,255H316.3c-16.8,0-30.6,13.8-30.6,30.6s13.8,30.6,30.6,30.6v30.6c0,63.8,32.6,119.9,82.1,152.9c-49.4,33-82.1,89.1-82.1,152.8v31.2c-16.8,0-30.6,13.8-30.6,30.6s13.8,30.6,30.6,30.6h367.5c16.8,0,30.6-13.8,30.6-30.6S700.6,683.8,683.8,683.8z M377.5,652.6c0-56.9,39.2-104.4,91.9-118.1v-69.6c-52.7-13.6-91.9-61.1-91.9-118v-30.6h245v30.6c0,56.9-39.3,104.4-91.9,118v69.6c52.6,13.7,91.9,61.1,91.9,118v31.2h-245V652.6z"/><path d="M500,566.4c-50.8,0-91.9,41.2-91.9,91.9h183.8C591.9,607.6,550.7,566.4,500,566.4z"/></g>
</svg>