<?xml version="1.0" standalone="no"?><!DOCTYPE svg PUBLIC "-//W3C//DTD SVG 1.1//EN" "http://www.w3.org/Graphics/SVG/1.1/DTD/svg11.dtd"><svg class="icon" height="512" viewBox="0 0 1024 1024" version="1.1" xmlns="http://www.w3.org/2000/svg"><path d="M764.736 332.416m-91.392 0a1.428 1.428 0 1 0 182.784 0 1.428 1.428 0 1 0-182.784 0ZM690.624 564.16 544 653.824 353.408 423.808 151.68 787.2 873.408 787.2ZM64 955.52l0-378.88L0 576.64l0 378.88c0 37.824 30.72 68.48 68.608 68.48L448 1024l0-64L68.608 960C66.048 960 64 958.016 64 955.52zM0 69.888l0 378.88 64 0 0-378.88c0-2.56 2.048-4.544 4.608-4.544L448 65.344l0-64L68.608 1.344C30.72 1.344 0 32.064 0 69.888zM960 955.52c0 2.496-2.112 4.48-4.672 4.48L576 960l0 64 379.328 0c37.888 0 68.672-30.656 68.672-68.48l0-378.88-64 0L960 955.52zM955.328 1.344 576 1.344l0 64 379.328 0c2.56 0 4.672 2.048 4.672 4.544l0 378.88 64 0 0-378.88C1024 32.064 993.28 1.344 955.328 1.344z" /></svg>